HIERARCHY
ROOT Hips
{
	OFFSET 0.000000 0.000000 0.000000
	CHANNELS 6 Xposition Yposition Zposition Zrotation Yrotation Xrotation 
	JOINT LHipJoint
	{
		OFFSET 0.000000 0.000000 0.000000
		CHANNELS 3 Zrotation Yrotation Xrotation
		JOINT LeftUpLeg
		{
			OFFSET 1.363060 -1.794630 0.839290
			CHANNELS 3 Zrotation Yrotation Xrotation
			JOINT LeftLeg
			{
				OFFSET 2.448110 -6.726130 0.000000
				CHANNELS 3 Zrotation Yrotation Xrotation
				JOINT LeftFoot
				{
					OFFSET 2.562200 -7.039590 0.000000
					CHANNELS 3 Zrotation Yrotation Xrotation
					JOINT LeftToeBase
					{
						OFFSET 0.157640 -0.433110 2.322550
						CHANNELS 3 Zrotation Yrotation Xrotation
						End Site
						{
							OFFSET 0.000000 0.000000 0.000000
						}
					}
				}
			}
		}
	}
	JOINT RHipJoint
	{
		OFFSET 0.000000 0.000000 0.000000
		CHANNELS 3 Zrotation Yrotation Xrotation
		JOINT RightUpLeg
		{
			OFFSET -1.305520 -1.794630 0.839290
			CHANNELS 3 Zrotation Yrotation Xrotation
			JOINT RightLeg
			{
				OFFSET -2.542530 -6.985550 0.000000
				CHANNELS 3 Zrotation Yrotation Xrotation
				JOINT RightFoot
				{
					OFFSET -2.568260 -7.056230 0.000000
					CHANNELS 3 Zrotation Yrotation Xrotation
					JOINT RightToeBase
					{
						OFFSET -0.164730 -0.452590 2.363150
						CHANNELS 3 Zrotation Yrotation Xrotation
						End Site
						{
							OFFSET 0.000000 0.000000 0.000000
						}
					}
				}
			}
		}
	}
	JOINT LowerBack
	{
		OFFSET 0.000000 0.000000 0.000000
		CHANNELS 3 Zrotation Yrotation Xrotation
		JOINT Spine
		{
			OFFSET 0.028270 2.035590 -0.193380
			CHANNELS 3 Zrotation Yrotation Xrotation
			JOINT Spine1
			{
				OFFSET 0.056720 2.048850 -0.042750
				CHANNELS 3 Zrotation Yrotation Xrotation
				JOINT Neck
				{
					OFFSET 0.000000 0.000000 0.000000
					CHANNELS 3 Zrotation Yrotation Xrotation
					JOINT Neck1
					{
						OFFSET -0.054170 1.746240 0.172020
						CHANNELS 3 Zrotation Yrotation Xrotation
						JOINT Head
						{
							OFFSET 0.104070 1.761360 -0.123970
							CHANNELS 3 Zrotation Yrotation Xrotation
							End Site
							{
								OFFSET 0.000000 0.000000 0.000000
							}
						}
					}
				}
				JOINT LeftShoulder
				{
					OFFSET 0.000000 0.000000 0.000000
					CHANNELS 3 Zrotation Yrotation Xrotation
					JOINT LeftArm
					{
						OFFSET 3.362410 1.200890 -0.311210
						CHANNELS 3 Zrotation Yrotation Xrotation
						JOINT LeftForeArm
						{
							OFFSET 4.983000 -0.000000 -0.000000
							CHANNELS 3 Zrotation Yrotation Xrotation
							JOINT LeftHand
							{
								OFFSET 3.483560 -0.000000 -0.000000
								CHANNELS 3 Zrotation Yrotation Xrotation
								JOINT LeftFingerBase
								{
									OFFSET 0.000000 0.000000 0.000000
									CHANNELS 3 Zrotation Yrotation Xrotation
									JOINT LeftHandIndex1
									{
										OFFSET 0.715260 -0.000000 -0.000000
										CHANNELS 3 Zrotation Yrotation Xrotation
										End Site
										{
											OFFSET 0.000000 0.000000 0.000000
										}
									}
								}
								JOINT LThumb
								{
									OFFSET 0.000000 0.000000 0.000000
									CHANNELS 3 Zrotation Yrotation Xrotation
									End Site
									{
										OFFSET 0.000000 0.000000 0.000000
									}
								}
							}
						}
					}
				}
				JOINT RightShoulder
				{
					OFFSET 0.000000 0.000000 0.000000
					CHANNELS 3 Zrotation Yrotation Xrotation
					JOINT RightArm
					{
						OFFSET -3.136600 1.374050 -0.404650
						CHANNELS 3 Zrotation Yrotation Xrotation
						JOINT RightForeArm
						{
							OFFSET -5.241900 -0.000000 -0.000000
							CHANNELS 3 Zrotation Yrotation Xrotation
							JOINT RightHand
							{
								OFFSET -3.444170 -0.000000 -0.000000
								CHANNELS 3 Zrotation Yrotation Xrotation
								JOINT RightFingerBase
								{
									OFFSET 0.000000 0.000000 0.000000
									CHANNELS 3 Zrotation Yrotation Xrotation
									JOINT RightHandIndex1
									{
										OFFSET -0.622530 -0.000000 -0.000000
										CHANNELS 3 Zrotation Yrotation Xrotation
										End Site
										{
											OFFSET 0.000000 0.000000 0.000000
										}
									}
								}
								JOINT RThumb
								{
									OFFSET 0.000000 0.000000 0.000000
									CHANNELS 3 Zrotation Yrotation Xrotation
									End Site
									{
										OFFSET 0.000000 0.000000 0.000000
									}
								}
							}
						}
					}
				}
			}
		}
	}
}
MOTION
Frames: 11
Frame Time: 0.008333
9.341743 17.278113 -44.363249 4.885366 7.728910 10.924625 -3.715834 2.512502 5.765771 -16.244295 0.881544 3.164202 -4.395640 -0.804665 3.487662 2.444027 -1.494881 15.823093 0.000900 0.197900 0.543900 1.062344 2.683376 -5.167757 -0.432366 17.736786 -32.920057 2.488475 -8.567377 15.910746 4.234006 -14.267309 -1.361697 -0.910300 6.079500 -17.015400 -6.337458 -4.974047 -3.146247 1.266045 -5.959670 -5.081020 6.414413 -4.117644 6.437232 -9.456106 -4.253152 -14.595962 5.898576 -3.816752 5.435229 5.600500 -1.844100 7.569400 -1.230706 -7.909261 0.168420 -70.227215 -25.027852 39.698835 18.871393 -27.093577 -6.876376 -0.099413 1.671540 -11.527035 19.481994 -24.042928 -8.661400 -7.125000 0.000000 0.000000 -6.335600 2.972000 6.036100 0.072691 7.058592 0.582335 75.265720 -21.303223 27.613170 -12.237723 20.977086 -4.025611 3.138480 2.948627 -13.504121 -28.699768 -20.526121 13.466400 7.125000 0.000000 0.000000 -3.898600 -55.675300 1.022400 
9.320906 17.256389 -44.130720 4.949273 7.473940 10.902778 -3.608496 2.618437 5.852095 -16.236581 1.214291 3.727140 -4.361095 -0.838365 3.540258 2.426473 -1.516471 16.172635 -0.000000 -0.039500 -0.108500 1.030434 2.636575 -5.179108 0.197570 16.822067 -33.186237 2.485004 -8.650985 16.212751 3.863359 -13.521898 -0.306080 -0.762500 5.576400 -15.560200 -6.328436 -4.886591 -3.119686 1.219079 -5.840266 -5.106325 6.187825 -4.039370 6.233817 -9.311348 -4.215369 -14.593682 5.942357 -3.787590 5.424942 5.615200 -1.820400 7.626600 -1.200773 -7.940177 0.128116 -70.284035 -24.716092 39.565076 19.493895 -27.693678 -7.204588 -0.091764 1.621868 -11.328169 19.649345 -23.918137 -8.689900 -7.125000 0.000000 0.000000 -6.213000 3.123500 5.900600 0.024114 7.104827 0.550856 75.716349 -21.315834 26.718576 -11.933009 20.531114 -3.783961 3.244579 2.203436 -12.528674 -29.464795 -15.565050 10.561600 7.125000 0.000000 0.000000 -5.253600 -49.516100 0.586500 
9.303284 17.222585 -43.895641 4.959666 7.269447 10.898019 -3.526450 2.728610 5.932820 -16.145858 1.495870 4.259437 -4.328029 -0.869912 3.583071 2.383279 -1.434169 16.642307 0.000800 -0.185800 -0.510600 0.999351 2.575867 -5.196206 1.227425 15.331907 -33.530721 2.491558 -8.711340 16.530510 3.426432 -12.700769 1.473681 -0.751500 5.536800 -15.446200 -6.380392 -4.808628 -3.195026 1.213224 -5.730790 -5.111716 6.245338 -3.992096 6.240218 -9.271250 -4.200913 -14.729137 5.879706 -3.768550 5.481077 5.540600 -1.818500 7.715200 -1.134953 -7.944207 0.093359 -70.530903 -24.683218 39.481283 19.934262 -28.137260 -7.452453 -0.075077 1.598911 -11.370682 19.659507 -24.069733 -8.727700 -7.125000 0.000000 0.000000 -6.227200 2.994300 5.929100 0.033922 7.093995 0.539454 75.843955 -21.199688 25.934419 -11.720701 20.292382 -3.782304 3.357117 2.464408 -12.105013 -30.276885 -17.848513 12.455800 7.125000 0.000000 0.000000 -6.067900 -52.525200 1.127200 
9.288986 17.174040 -43.656905 4.884011 7.285986 10.849166 -3.426704 2.861496 6.012458 -15.964384 1.612651 4.898627 -4.296856 -0.893942 3.621025 2.265257 -1.141193 16.946096 0.018100 -0.869200 -2.388900 0.941056 2.499868 -5.201209 2.428001 13.604940 -33.972715 2.459027 -8.893474 17.182056 2.925192 -11.795350 3.623454 -0.839800 5.845700 -16.337200 -6.281790 -4.856066 -3.268395 1.233951 -5.795872 -5.113752 6.259028 -4.031348 6.293943 -9.201699 -4.148498 -14.818882 5.777925 -3.716364 5.582762 5.439100 -1.807500 7.787700 -1.088964 -7.944893 0.073432 -70.631518 -24.667890 39.431960 20.160219 -28.379530 -7.594368 -0.093467 1.607047 -11.616159 19.944594 -24.395607 -8.975800 -7.125000 0.000000 0.000000 -6.082600 2.595500 5.834300 0.070211 7.064260 0.547415 75.738812 -20.975378 25.467264 -11.478895 20.103349 -3.879506 3.505872 3.110032 -12.020547 -31.757938 -22.796242 16.596500 7.125000 0.000000 0.000000 -7.498100 -59.037800 2.581200 
9.271918 17.140901 -43.411851 4.804303 7.306730 10.765961 -3.305375 3.026902 6.128255 -15.681065 1.703287 5.671973 -4.262749 -0.938838 3.669647 2.267016 -1.185826 17.464604 0.021400 -0.944000 -2.594800 0.876645 2.397715 -5.177342 3.651099 11.989151 -34.409836 2.367366 -9.192467 18.096086 2.652896 -11.495796 6.093401 -0.948000 6.200800 -17.368300 -6.169228 -4.940016 -3.185252 1.267263 -5.937179 -5.159785 6.339402 -4.094715 6.066236 -9.256882 -4.024674 -14.841470 5.704156 -3.531153 5.773658 5.401500 -1.753600 7.960800 -1.048871 -7.968366 0.012116 -70.771399 -24.201658 39.456579 20.488125 -28.737119 -7.791864 -0.119780 1.602479 -11.940484 20.275198 -24.651135 -9.227000 -7.125000 0.000000 0.000000 -5.899200 2.271200 5.691400 0.098311 7.065923 0.529511 75.495105 -21.041248 25.361647 -11.255809 19.885070 -3.892579 3.553065 3.428931 -11.827254 -32.172405 -25.232914 18.477700 7.125000 0.000000 0.000000 -7.743800 -62.158600 3.241400 
9.252744 17.105877 -43.162697 4.904711 7.263293 10.563312 -3.181224 3.172671 6.215710 -15.692377 1.922210 6.545457 -4.226072 -0.971117 3.711584 2.130065 -0.894133 17.776963 0.098800 -2.027200 -5.580700 0.776283 2.304072 -5.158245 4.639840 10.529089 -34.835127 2.198613 -9.602761 19.242624 2.471598 -11.535554 8.920489 -1.039900 6.485500 -18.199800 -6.344379 -4.991945 -2.933831 1.299701 -6.028409 -5.195246 6.654448 -4.150188 5.843030 -9.538829 -3.924264 -14.909801 5.721645 -3.303831 5.865701 5.474900 -1.673400 8.091100 -1.007370 -7.968091 -0.057239 -71.198526 -23.721110 39.378454 20.897350 -29.183524 -8.033842 -0.114582 1.575503 -12.059330 20.303925 -24.731602 -9.256100 -7.125000 0.000000 0.000000 -5.889300 2.213500 5.687900 0.120713 7.068315 0.516434 75.166432 -21.183979 25.510670 -11.114996 19.677554 -3.822725 3.631506 3.332626 -11.740724 -32.752708 -24.523188 18.387200 7.125000 0.000000 0.000000 -8.698800 -61.411800 3.490600 
9.248975 17.072516 -42.918419 4.921645 7.396487 10.241757 -3.040867 3.310745 6.265911 -15.734040 2.052753 7.449180 -4.192311 -0.982902 3.729636 1.801936 -0.030621 18.036544 0.382600 -3.972200 -10.998400 0.639365 2.228906 -5.157756 5.675934 8.593840 -35.413992 2.026422 -10.002508 20.411818 1.963272 -10.999489 12.418960 -1.254100 7.099700 -20.010900 -6.190308 -5.075660 -2.720117 1.317171 -6.147257 -5.173237 6.645690 -4.219380 5.894967 -9.661787 -3.886928 -14.965780 5.704737 -3.210080 5.808179 5.514900 -1.629500 8.055900 -0.995183 -7.945015 -0.069330 -71.514660 -23.501607 39.221264 21.258523 -29.560701 -8.241778 -0.104753 1.533732 -12.044384 20.188503 -24.659232 -9.160600 -7.125000 0.000000 0.000000 -5.947200 2.356600 5.729000 0.142355 7.048606 0.533445 74.929662 -20.924031 25.437864 -10.931508 19.425973 -3.680076 3.692207 2.976560 -11.475920 -32.958172 -22.026307 16.787000 7.125000 0.000000 0.000000 -9.216900 -58.311900 3.017800 
9.239998 17.054450 -42.670595 4.587226 7.527519 10.080333 -2.942179 3.454521 6.357175 -15.302785 2.130464 7.960727 -4.156937 -0.993014 3.738116 1.512776 0.893158 18.865798 0.687000 -5.299000 -14.763200 0.525151 2.162304 -5.131073 6.714537 7.223958 -36.066967 1.887840 -10.399466 21.587101 1.280747 -9.997328 15.551368 -1.339100 7.327100 -20.688100 -5.626717 -5.116370 -2.582273 1.346888 -6.254937 -5.216992 6.534599 -4.244455 5.565297 -9.717106 -3.855746 -14.805135 5.674980 -3.155789 5.861433 5.535900 -1.625600 8.115700 -0.975243 -7.977930 -0.112589 -71.770519 -22.858157 39.344102 21.602023 -29.911609 -8.430490 -0.091350 1.491663 -12.140289 19.979295 -24.592197 -9.018300 -7.125000 0.000000 0.000000 -6.066200 2.513000 5.827500 0.139697 7.083155 0.511460 74.810456 -21.074661 25.295632 -10.896120 19.324768 -3.546791 3.531310 2.613487 -11.071495 -30.832865 -19.444481 13.831300 7.125000 0.000000 0.000000 -6.703800 -54.626900 1.590800 
9.187019 17.053231 -42.414236 4.326171 7.101979 10.476246 -2.905686 3.547386 6.412643 -14.813863 2.556892 8.015411 -4.110477 -1.003434 3.761542 1.371605 1.471410 19.929267 0.816200 -5.764800 -16.103500 0.447746 2.147567 -5.190332 7.131570 7.835590 -36.523607 1.727017 -10.857115 22.703886 1.093448 -9.767852 16.639415 -1.220500 7.007400 -19.737200 -5.750652 -5.060352 -3.339530 1.384190 -6.142770 -5.200396 6.918399 -4.231837 6.063075 -9.852892 -3.872571 -15.246257 5.727059 -3.123985 6.007159 5.567500 -1.609900 8.273600 -0.941703 -7.885627 -0.135745 -71.946160 -22.799510 39.419479 21.707123 -30.124713 -8.515801 -0.076036 1.476698 -12.138032 19.799235 -24.765142 -8.972900 -7.125000 0.000000 0.000000 -6.197500 2.388100 5.969300 0.240847 6.972947 0.486901 74.617505 -20.693340 25.240620 -10.842478 19.208396 -3.468282 3.359027 2.646456 -11.007227 -28.943980 -19.428820 12.902600 7.125000 0.000000 0.000000 -4.432000 -54.313800 1.015900 
9.199322 17.045140 -42.202654 3.709629 7.402261 10.184638 -2.752388 3.791834 6.534327 -14.092243 2.566709 8.813458 -4.057018 -1.017813 3.787063 1.132215 2.322536 20.977536 1.143100 -6.789400 -19.092900 0.368663 1.997191 -5.055238 8.321929 6.717868 -36.801610 1.569752 -11.259627 24.095170 0.528849 -8.289437 17.454306 -1.262800 7.123300 -20.081100 -4.652541 -5.066839 -2.838794 1.396712 -6.234919 -5.250109 6.674554 -4.260916 5.771596 -10.585952 -3.741739 -15.968097 6.422653 -2.633254 6.504707 6.509000 -1.407900 9.114500 -1.042864 -7.951662 -0.272824 -72.261665 -22.392088 39.634298 21.884240 -30.222401 -8.603685 -0.076412 1.490052 -11.995282 20.041086 -25.043016 -9.184900 -7.125000 0.000000 0.000000 -6.081600 2.042700 5.894600 0.027847 7.146461 0.420396 74.718055 -20.462672 25.003273 -10.658680 19.053085 -3.507865 3.343433 3.029814 -11.032362 -28.384052 -22.372671 14.442900 7.125000 0.000000 0.000000 -3.289700 -57.832900 1.034100 
9.175825 17.023195 -41.963807 3.490119 7.433589 10.129586 -2.660037 3.955881 6.598088 -13.710816 2.701463 9.329940 -4.016343 -1.004022 3.769803 0.822213 3.490697 22.262124 1.118700 -6.718800 -18.885100 0.292367 1.895295 -4.991438 8.841569 6.591238 -36.958061 1.346769 -11.717430 25.450237 0.263303 -7.529934 17.906136 -1.180300 6.895300 -19.405400 -4.428736 -5.026391 -2.858209 1.394305 -6.192813 -5.264977 6.685587 -4.247226 5.773690 -10.892116 -3.701262 -16.330829 6.770271 -2.442773 6.769117 6.943500 -1.330700 9.510000 -1.075216 -7.941455 -0.339680 -72.593422 -22.020754 40.066085 21.947227 -30.310767 -8.634080 -0.105541 1.498064 -11.939900 20.437440 -25.206071 -9.452100 -7.125000 0.000000 0.000000 -5.846000 1.784700 5.691100 -0.056671 7.181772 0.388468 74.915366 -20.301650 24.682106 -10.560252 18.955888 -3.556045 3.436120 3.229707 -10.854519 -29.260088 -24.094592 15.980900 7.125000 0.000000 0.000000 -4.050300 -60.100300 1.493700 
